<?xml version="1.0" encoding="UTF-8" standalone="no"?>
<!-- Created with Inkscape (http://www.inkscape.org/) -->
<svg
        width="140.97816mm"
        height="141.0042mm"
        viewBox="0 0 140.97816 141.0042"
        version="1.1"
        id="svg1"
        xml:space="preserve"
        xmlns="http://www.w3.org/2000/svg"><defs
     id="defs1" />
    <g
            id="g6"
            style="display:inline"
            transform="translate(-27.340404,-77.879791)"><path
       style="display:inline;fill:#e06318;fill-opacity:1;stroke:#e06318;stroke-opacity:1"
       d="m 91.916758,218.28693 c -0.509323,-0.0604 -1.938073,-0.23325 -3.175,-0.38404 -14.89372,-1.8157 -29.428663,-8.99814 -40.360569,-19.94417 -11.268602,-11.28315 -17.97419,-24.88444 -20.10141,-40.77273 -0.511454,-3.82007 -0.587528,-12.30571 -0.145783,-16.26138 1.170567,-10.48204 4.967105,-21.32152 10.47177,-29.89792 4.085542,-6.36537 10.551268,-13.473764 16.31395,-17.935494 17.091949,-13.233362 39.149514,-17.849653 60.113824,-12.580851 21.00578,5.279223 38.67813,20.365135 47.21626,40.305925 3.58939,8.38301 5.25571,16.05862 5.52121,25.43246 0.1836,6.48215 -0.1442,10.65638 -1.27526,16.23942 -2.75384,13.59321 -9.30144,25.69872 -19.25316,35.59618 -10.71364,10.65521 -23.9797,17.32683 -39.18625,19.70709 -2.65904,0.41622 -13.899351,0.76131 -16.139582,0.49551 z m 13.890622,-12.97372 c 18.88558,-2.58233 35.70064,-14.97998 43.83408,-32.31863 2.34151,-4.99155 3.97919,-10.46612 4.8842,-16.32726 0.59722,-3.86773 0.59089,-11.85434 -0.0126,-15.875 -1.28855,-8.58522 -4.41897,-16.82291 -8.98028,-23.63154 -3.16978,-4.73151 -7.30374,-9.43625 -7.81971,-8.89938 -0.13307,0.13846 -1.72644,2.81671 -3.54081,5.95167 -5.82219,10.05982 -6.36275,11.41355 -6.38741,15.99591 -0.0211,3.92552 0.28693,4.6286 3.30178,7.53604 2.96593,2.86024 3.56031,4.20823 3.56031,8.07438 0,2.7891 -0.0371,2.98149 -0.8897,4.61555 -1.58388,3.03558 -2.57563,3.74793 -15.67543,11.25945 -12.89753,7.39554 -14.11137,8.24071 -17.321,12.06029 -2.791393,3.32187 -3.440239,4.35114 -11.077959,17.57304 -5.992587,10.37396 -6.970966,12.21472 -6.626895,12.46808 0.74458,0.54829 7.698718,1.79759 11.374313,2.04338 2.378402,0.15904 8.404811,-0.11957 11.377081,-0.52598 z M 64.818976,177.50325 c 8.646718,-15.01095 9.941409,-17.72808 11.235544,-23.57978 0.462049,-2.08924 0.505438,-3.49871 0.510678,-16.58886 0.0061,-15.31166 0.02362,-15.54201 1.382379,-18.20956 0.790476,-1.55188 2.671364,-3.42047 4.23765,-4.20995 0.768436,-0.38732 2.290124,-0.84141 3.381531,-1.00907 1.791528,-0.27522 2.190078,-0.24868 4.101041,0.27312 4.227968,1.15447 4.73885,1.21099 6.505967,0.71969 2.932564,-0.81533 5.712774,-3.0476 8.344594,-6.69999 1.61189,-2.23696 8.30048,-13.806704 8.30048,-14.357957 0,-0.88374 -6.72969,-2.068837 -13.109461,-2.308573 -13.59184,-0.510748 -26.901833,3.909922 -37.558247,12.47428 -2.691023,2.16273 -7.108516,6.56567 -9.166943,9.13676 -7.72386,9.64751 -12.386019,22.83453 -12.394207,35.05729 -0.0099,14.84178 5.744225,29.4827 15.571968,39.62135 0.811085,0.83675 1.556173,1.52136 1.655751,1.52136 0.09958,0 3.250152,-5.32805 7.001275,-11.84011 z m 23.839412,-6.96114 c 1.610775,-0.60644 37.270642,-21.33561 38.083482,-22.13803 1.23779,-1.2219 1.5392,-2.50983 0.91671,-3.91707 -0.26914,-0.60844 -0.89045,-1.40712 -1.38069,-1.77483 -1.85057,-1.38808 -37.30661,-21.69507 -38.259113,-21.91242 -2.061488,-0.4704 -3.70738,0.53288 -4.31789,2.63203 -0.187489,0.64465 -0.252129,8.11397 -0.198325,22.91678 0.07603,20.91694 0.103365,21.9993 0.575333,22.77874 0.933004,1.54084 2.752763,2.10291 4.580493,1.4148 z"
       id="path6" />
        <path
                style="display:inline;fill:#f56700;fill-opacity:1;stroke:#f56700;stroke-opacity:1"
                d="m 85.26852,170.37704 c -0.382311,-0.23727 -0.918093,-0.79965 -1.190625,-1.24973 -0.471968,-0.77944 -0.499305,-1.8618 -0.575333,-22.77874 -0.0538,-14.80281 0.01084,-22.27213 0.198325,-22.91678 0.61051,-2.09915 2.256402,-3.10243 4.31789,-2.63203 0.952503,0.21735 36.408543,20.52434 38.259113,21.91242 0.49024,0.36771 1.11155,1.16639 1.38069,1.77483 0.62249,1.40724 0.32108,2.69517 -0.91671,3.91707 -0.81284,0.80242 -36.472707,21.53159 -38.083482,22.13803 -1.07784,0.40579 -2.588584,0.33223 -3.389868,-0.16507 z m 20.64852,-12.9513 c 9.98063,-5.7675 18.40588,-10.72127 18.72279,-11.00837 0.31692,-0.28711 0.51373,-0.68482 0.43737,-0.88381 -0.17825,-0.46451 -2.60468,-1.96312 -3.17853,-1.96312 -0.24047,0 -8.33382,4.55414 -17.98522,10.12031 l -17.548013,10.12032 -0.0025,1.87413 c -0.0027,2.02618 0.07655,2.22691 0.878889,2.22691 0.290716,0 8.694544,-4.71887 18.675174,-10.48637 z"
                id="path94"/>
        <path
                id="path340"
                style="display:inline;fill:#e74702;fill-opacity:1;stroke:#e74702;stroke-opacity:1"
                d="m 111.36363,200.25295 c 2.81497,-1.16214 7.95604,-3.88597 10.45105,-5.53713 15.19603,-10.05656 24.60436,-25.10552 27.01268,-43.20779 0.47004,-3.5331 0.38795,-11.88068 -0.15222,-15.47812 -0.40552,-2.70071 -1.22416,-6.76446 -1.60273,-7.95594 -0.12811,-0.4032 -0.10734,-0.42709 0.0986,-0.11347 0.61284,0.93313 2.49662,6.98515 3.08645,9.91584 3.8148,18.95476 -2.50059,37.88024 -16.93345,50.7448 -5.16115,4.60033 -12.26478,8.73524 -18.65312,10.85767 -3.18508,1.0582 -5.05626,1.49618 -3.3073,0.77414 z M 47.364861,166.79892 c -2.079247,-5.89057 -2.809032,-9.94428 -2.990982,-16.6139 -0.109005,-3.99572 -0.04137,-5.86913 0.299867,-8.3063 2.487519,-17.76613 13.679173,-33.15399 29.856609,-41.05107 3.04465,-1.486258 9.871902,-4.01824 10.1324,-3.757742 0.05704,0.05704 -1.174742,0.659898 -2.737291,1.339686 -7.81293,3.399016 -15.867621,9.511506 -21.528618,16.337466 -3.236823,3.90292 -5.590105,7.53757 -7.783962,12.02234 -3.152994,6.44548 -4.869805,12.17433 -5.827804,19.44687 -0.774818,5.88195 -0.223814,15.20855 1.240587,20.99887 0.289485,1.14464 0.475512,2.13199 0.413394,2.19411 -0.06212,0.0621 -0.545508,-1.11253 -1.0742,-2.61033 z m 39.172036,0.9368 c -0.09701,-0.097 -0.17528,-1.01975 -0.173925,-2.05052 l 0.0025,-1.87413 17.548018,-10.12032 c 9.6514,-5.56617 17.74475,-10.12031 17.98522,-10.12031 0.57385,0 3.00028,1.49861 3.17853,1.96312 0.0764,0.19899 -0.12045,0.5967 -0.43737,0.88381 -0.976,0.8842 -36.835573,21.49474 -37.397974,21.49474 -0.290717,0 -0.607951,-0.0794 -0.704964,-0.17639 z"/></g></svg>
